<svg xmlns="http://www.w3.org/2000/svg" version="1.1" xmlns:xlink="http://www.w3.org/1999/xlink" xmlns:svgjs="http://svgjs.dev/svgjs" width="1440" height="560" preserveAspectRatio="none" viewBox="0 0 1440 560">
    <g mask="url(&quot;#SvgjsMask1000&quot;)" fill="none">
        <rect width="1440" height="560" x="0" y="0" fill="#0e2a47"></rect>
        <path d="M11.31 -21.88L76.26 15.62L76.26 90.62L11.31 128.12L-53.64 90.62L-53.64 15.62zM141.22 428.12L206.17 465.62L206.17 540.62L141.22 578.12L76.26 540.62L76.26 465.62zM401.03 203.12L465.99 240.62L465.99 315.62L401.03 353.12L336.08 315.62L336.08 240.62zM465.99 315.62L530.94 353.12L530.94 428.12L465.99 465.62L401.03 428.12L401.03 353.12zM595.89 90.62L660.85 128.12L660.85 203.12L595.89 240.62L530.94 203.12L530.94 128.12zM660.85 -21.88L725.8 15.62L725.8 90.62L660.85 128.12L595.89 90.62L595.89 15.62zM790.75 -21.88L855.71 15.62L855.71 90.62L790.75 128.12L725.8 90.62L725.8 15.62zM1115.52 315.62L1180.48 353.12L1180.48 428.12L1115.52 465.62L1050.57 428.12L1050.57 353.12zM1180.48 -21.88L1245.43 15.62L1245.43 90.62L1180.48 128.12L1115.52 90.62L1115.52 15.62zM1310.38 -21.88L1375.34 15.62L1375.34 90.62L1310.38 128.12L1245.43 90.62L1245.43 15.62zM1310.38 428.12L1375.34 465.62L1375.34 540.62L1310.38 578.12L1245.43 540.62L1245.43 465.62zM1440.29 -21.88L1505.25 15.62L1505.25 90.62L1440.29 128.12L1375.34 90.62L1375.34 15.62z" stroke="#03305d" stroke-width="2"></path>
        <path d="M3.81 -21.88 a7.5 7.5 0 1 0 15 0 a7.5 7.5 0 1 0 -15 0zM68.76 15.62 a7.5 7.5 0 1 0 15 0 a7.5 7.5 0 1 0 -15 0zM68.76 90.62 a7.5 7.5 0 1 0 15 0 a7.5 7.5 0 1 0 -15 0zM3.81 128.12 a7.5 7.5 0 1 0 15 0 a7.5 7.5 0 1 0 -15 0zM-61.14 90.62 a7.5 7.5 0 1 0 15 0 a7.5 7.5 0 1 0 -15 0zM-61.14 15.62 a7.5 7.5 0 1 0 15 0 a7.5 7.5 0 1 0 -15 0zM133.72 428.12 a7.5 7.5 0 1 0 15 0 a7.5 7.5 0 1 0 -15 0zM198.67 465.62 a7.5 7.5 0 1 0 15 0 a7.5 7.5 0 1 0 -15 0zM198.67 540.62 a7.5 7.5 0 1 0 15 0 a7.5 7.5 0 1 0 -15 0zM133.72 578.12 a7.5 7.5 0 1 0 15 0 a7.5 7.5 0 1 0 -15 0zM68.76 540.62 a7.5 7.5 0 1 0 15 0 a7.5 7.5 0 1 0 -15 0zM68.76 465.62 a7.5 7.5 0 1 0 15 0 a7.5 7.5 0 1 0 -15 0zM393.53 203.12 a7.5 7.5 0 1 0 15 0 a7.5 7.5 0 1 0 -15 0zM458.49 240.62 a7.5 7.5 0 1 0 15 0 a7.5 7.5 0 1 0 -15 0zM458.49 315.62 a7.5 7.5 0 1 0 15 0 a7.5 7.5 0 1 0 -15 0zM393.53 353.12 a7.5 7.5 0 1 0 15 0 a7.5 7.5 0 1 0 -15 0zM328.58 315.62 a7.5 7.5 0 1 0 15 0 a7.5 7.5 0 1 0 -15 0zM328.58 240.62 a7.5 7.5 0 1 0 15 0 a7.5 7.5 0 1 0 -15 0zM523.44 353.12 a7.5 7.5 0 1 0 15 0 a7.5 7.5 0 1 0 -15 0zM523.44 428.12 a7.5 7.5 0 1 0 15 0 a7.5 7.5 0 1 0 -15 0zM458.49 465.62 a7.5 7.5 0 1 0 15 0 a7.5 7.5 0 1 0 -15 0zM393.53 428.12 a7.5 7.5 0 1 0 15 0 a7.5 7.5 0 1 0 -15 0zM588.39 90.62 a7.5 7.5 0 1 0 15 0 a7.5 7.5 0 1 0 -15 0zM653.35 128.12 a7.5 7.5 0 1 0 15 0 a7.5 7.5 0 1 0 -15 0zM653.35 203.12 a7.5 7.5 0 1 0 15 0 a7.5 7.5 0 1 0 -15 0zM588.39 240.62 a7.5 7.5 0 1 0 15 0 a7.5 7.5 0 1 0 -15 0zM523.44 203.12 a7.5 7.5 0 1 0 15 0 a7.5 7.5 0 1 0 -15 0zM523.44 128.12 a7.5 7.5 0 1 0 15 0 a7.5 7.5 0 1 0 -15 0zM653.35 -21.88 a7.5 7.5 0 1 0 15 0 a7.5 7.5 0 1 0 -15 0zM718.3 15.62 a7.5 7.5 0 1 0 15 0 a7.5 7.5 0 1 0 -15 0zM718.3 90.62 a7.5 7.5 0 1 0 15 0 a7.5 7.5 0 1 0 -15 0zM588.39 15.62 a7.5 7.5 0 1 0 15 0 a7.5 7.5 0 1 0 -15 0zM783.25 -21.88 a7.5 7.5 0 1 0 15 0 a7.5 7.5 0 1 0 -15 0zM848.21 15.62 a7.5 7.5 0 1 0 15 0 a7.5 7.5 0 1 0 -15 0zM848.21 90.62 a7.5 7.5 0 1 0 15 0 a7.5 7.5 0 1 0 -15 0zM783.25 128.12 a7.5 7.5 0 1 0 15 0 a7.5 7.5 0 1 0 -15 0zM1108.02 315.62 a7.5 7.5 0 1 0 15 0 a7.5 7.5 0 1 0 -15 0zM1172.98 353.12 a7.5 7.5 0 1 0 15 0 a7.5 7.5 0 1 0 -15 0zM1172.98 428.12 a7.5 7.5 0 1 0 15 0 a7.5 7.5 0 1 0 -15 0zM1108.02 465.62 a7.5 7.5 0 1 0 15 0 a7.5 7.5 0 1 0 -15 0zM1043.07 428.12 a7.5 7.5 0 1 0 15 0 a7.5 7.5 0 1 0 -15 0zM1043.07 353.12 a7.5 7.5 0 1 0 15 0 a7.5 7.5 0 1 0 -15 0zM1172.98 -21.88 a7.5 7.5 0 1 0 15 0 a7.5 7.5 0 1 0 -15 0zM1237.93 15.62 a7.5 7.5 0 1 0 15 0 a7.5 7.5 0 1 0 -15 0zM1237.93 90.62 a7.5 7.5 0 1 0 15 0 a7.5 7.5 0 1 0 -15 0zM1172.98 128.12 a7.5 7.5 0 1 0 15 0 a7.5 7.5 0 1 0 -15 0zM1108.02 90.62 a7.5 7.5 0 1 0 15 0 a7.5 7.5 0 1 0 -15 0zM1108.02 15.62 a7.5 7.5 0 1 0 15 0 a7.5 7.5 0 1 0 -15 0zM1302.88 -21.88 a7.5 7.5 0 1 0 15 0 a7.5 7.5 0 1 0 -15 0zM1367.84 15.62 a7.5 7.5 0 1 0 15 0 a7.5 7.5 0 1 0 -15 0zM1367.84 90.62 a7.5 7.5 0 1 0 15 0 a7.5 7.5 0 1 0 -15 0zM1302.88 128.12 a7.5 7.5 0 1 0 15 0 a7.5 7.5 0 1 0 -15 0zM1302.88 428.12 a7.5 7.5 0 1 0 15 0 a7.5 7.5 0 1 0 -15 0zM1367.84 465.62 a7.5 7.5 0 1 0 15 0 a7.5 7.5 0 1 0 -15 0zM1367.84 540.62 a7.5 7.5 0 1 0 15 0 a7.5 7.5 0 1 0 -15 0zM1302.88 578.12 a7.5 7.5 0 1 0 15 0 a7.5 7.5 0 1 0 -15 0zM1237.93 540.62 a7.5 7.5 0 1 0 15 0 a7.5 7.5 0 1 0 -15 0zM1237.93 465.62 a7.5 7.5 0 1 0 15 0 a7.5 7.5 0 1 0 -15 0zM1432.79 -21.88 a7.5 7.5 0 1 0 15 0 a7.5 7.5 0 1 0 -15 0zM1497.75 15.62 a7.5 7.5 0 1 0 15 0 a7.5 7.5 0 1 0 -15 0zM1497.75 90.62 a7.5 7.5 0 1 0 15 0 a7.5 7.5 0 1 0 -15 0zM1432.79 128.12 a7.5 7.5 0 1 0 15 0 a7.5 7.5 0 1 0 -15 0z" fill="#03305d"></path>
        <path d="M76.63 47.91L119.94 72.91L119.94 122.91L76.63 147.91L33.33 122.91L33.33 72.91zM33.33 122.91L76.63 147.91L76.63 197.91L33.33 222.91L-9.97 197.91L-9.97 147.91zM33.33 272.91L76.63 297.91L76.63 347.91L33.33 372.91L-9.97 347.91L-9.97 297.91zM76.63 347.91L119.94 372.91L119.94 422.91L76.63 447.91L33.33 422.91L33.33 372.91zM33.33 422.91L76.63 447.91L76.63 497.91L33.33 522.91L-9.97 497.91L-9.97 447.91zM163.24 197.91L206.54 222.91L206.54 272.91L163.24 297.91L119.94 272.91L119.94 222.91zM119.94 422.91L163.24 447.91L163.24 497.91L119.94 522.91L76.63 497.91L76.63 447.91zM206.54 272.91L249.84 297.91L249.84 347.91L206.54 372.91L163.24 347.91L163.24 297.91zM336.45 47.91L379.75 72.91L379.75 122.91L336.45 147.91L293.14 122.91L293.14 72.91zM293.14 122.91L336.45 147.91L336.45 197.91L293.14 222.91L249.84 197.91L249.84 147.91zM379.75 -27.09L423.05 -2.09L423.05 47.91L379.75 72.91L336.45 47.91L336.45 -2.09zM423.05 47.91L466.36 72.91L466.36 122.91L423.05 147.91L379.75 122.91L379.75 72.91zM423.05 497.91L466.36 522.91L466.36 572.91L423.05 597.91L379.75 572.91L379.75 522.91zM552.96 272.91L596.26 297.91L596.26 347.91L552.96 372.91L509.66 347.91L509.66 297.91zM596.26 347.91L639.57 372.91L639.57 422.91L596.26 447.91L552.96 422.91L552.96 372.91zM552.96 422.91L596.26 447.91L596.26 497.91L552.96 522.91L509.66 497.91L509.66 447.91zM639.57 272.91L682.87 297.91L682.87 347.91L639.57 372.91L596.26 347.91L596.26 297.91zM682.87 347.91L726.17 372.91L726.17 422.91L682.87 447.91L639.57 422.91L639.57 372.91zM682.87 497.91L726.17 522.91L726.17 572.91L682.87 597.91L639.57 572.91L639.57 522.91zM726.17 -27.09L769.47 -2.09L769.47 47.91L726.17 72.91L682.87 47.91L682.87 -2.09zM769.47 47.91L812.78 72.91L812.78 122.91L769.47 147.91L726.17 122.91L726.17 72.91zM769.47 197.91L812.78 222.91L812.78 272.91L769.47 297.91L726.17 272.91L726.17 222.91zM769.47 347.91L812.78 372.91L812.78 422.91L769.47 447.91L726.17 422.91L726.17 372.91zM812.78 -27.09L856.08 -2.09L856.08 47.91L812.78 72.91L769.47 47.91L769.47 -2.09zM856.08 347.91L899.38 372.91L899.38 422.91L856.08 447.91L812.78 422.91L812.78 372.91zM812.78 422.91L856.08 447.91L856.08 497.91L812.78 522.91L769.47 497.91L769.47 447.91zM899.38 122.91L942.68 147.91L942.68 197.91L899.38 222.91L856.08 197.91L856.08 147.91zM942.68 347.91L985.99 372.91L985.99 422.91L942.68 447.91L899.38 422.91L899.38 372.91zM942.68 497.91L985.99 522.91L985.99 572.91L942.68 597.91L899.38 572.91L899.38 522.91zM1072.59 422.91L1115.89 447.91L1115.89 497.91L1072.59 522.91L1029.29 497.91L1029.29 447.91zM1159.19 -27.09L1202.5 -2.09L1202.5 47.91L1159.19 72.91L1115.89 47.91L1115.89 -2.09zM1202.5 197.91L1245.8 222.91L1245.8 272.91L1202.5 297.91L1159.19 272.91L1159.19 222.91zM1202.5 347.91L1245.8 372.91L1245.8 422.91L1202.5 447.91L1159.19 422.91L1159.19 372.91zM1202.5 497.91L1245.8 522.91L1245.8 572.91L1202.5 597.91L1159.19 572.91L1159.19 522.91zM1245.8 -27.09L1289.1 -2.09L1289.1 47.91L1245.8 72.91L1202.5 47.91L1202.5 -2.09zM1245.8 122.91L1289.1 147.91L1289.1 197.91L1245.8 222.91L1202.5 197.91L1202.5 147.91zM1289.1 197.91L1332.4 222.91L1332.4 272.91L1289.1 297.91L1245.8 272.91L1245.8 222.91zM1289.1 497.91L1332.4 522.91L1332.4 572.91L1289.1 597.91L1245.8 572.91L1245.8 522.91zM1332.4 -27.09L1375.71 -2.09L1375.71 47.91L1332.4 72.91L1289.1 47.91L1289.1 -2.09zM1332.4 122.91L1375.71 147.91L1375.71 197.91L1332.4 222.91L1289.1 197.91L1289.1 147.91zM1375.71 197.91L1419.01 222.91L1419.01 272.91L1375.71 297.91L1332.4 272.91L1332.4 222.91zM1332.4 422.91L1375.71 447.91L1375.71 497.91L1332.4 522.91L1289.1 497.91L1289.1 447.91zM1462.31 347.91L1505.62 372.91L1505.62 422.91L1462.31 447.91L1419.01 422.91L1419.01 372.91zM1419.01 422.91L1462.31 447.91L1462.31 497.91L1419.01 522.91L1375.71 497.91L1375.71 447.91z" stroke="rgba(6, 80, 156, 0.93)" stroke-width="2"></path>
    </g>
    <defs>
        <mask id="SvgjsMask1000">
            <rect width="1440" height="560" fill="#ffffff"></rect>
        </mask>
    </defs>
</svg>